<svg xmlns="http://www.w3.org/2000/svg" viewBox="0 0 200 200" fill="none" stroke="#1f2937" stroke-width="6" stroke-linecap="round" stroke-linejoin="round">
<rect x="25" y="50" width="150" height="100" rx="10" />
<line x1="25" y1="78" x2="175" y2="78" />
<circle cx="42" cy="64" r="4" fill="#1f2937" stroke="none" />
<circle cx="56" cy="64" r="4" fill="#1f2937" stroke="none" />
<circle cx="70" cy="64" r="4" fill="#1f2937" stroke="none" />
<path d="M80 98 q-10 0 -10 14 l0 6 q0 4 -5 4 q5 0 5 4 l0 6 q0 14 10 14" stroke-width="5" />
<path d="M120 98 q10 0 10 14 l0 6 q0 4 5 4 q-5 0 -5 4 l0 6 q0 14 -10 14" stroke-width="5" />
<line x1="95" y1="128" x2="105" y2="128" stroke-width="4" />
</svg>
